<svg xmlns="http://www.w3.org/2000/svg" width="56" height="56"><defs><filter id="a" width="12.124" height="22.728" x="21.625" y="19" filterUnits="userSpaceOnUse"><feOffset dy="1"/><feGaussianBlur result="blur"/><feFlood flood-color="#f8dc01"/><feComposite in2="blur" operator="in"/><feComposite in="SourceGraphic"/></filter></defs><g transform="translate(0 -936)"><circle cx="28" cy="28" r="28" fill="#fee500" transform="translate(0 936)"/><g filter="url(#a)" transform="translate(0 936)"><g fill="#fff"><path d="m26.516 40.567-.072-.07-3.38-3.298-.108-.106.124-.086a10.012 10.012 0 0 0 2.51-2.565 9.728 9.728 0 0 0 1.514-3.632l-5.228-.001h-.125V19.124h11.874v8.465c0 5.19-2.626 10.021-7.025 12.923l-.084.055z"/><path fill="#cdaa14" d="M21.876 19.249v11.435l5.378.001c-.513 2.911-2.283 5.153-4.102 6.424l3.38 3.298c4.201-2.772 6.968-7.468 6.968-12.817v-8.341H21.876m-.25-.25H33.75v8.59c0 5.233-2.647 10.102-7.081 13.027l-.168.11-3.74-3.649.247-.173a9.87 9.87 0 0 0 2.478-2.532 9.598 9.598 0 0 0 1.465-3.437l-5.325-.001V18.999z"/></g></g></g></svg>