<svg xmlns="http://www.w3.org/2000/svg" width="56" height="56"><g transform="translate(0 -936)"><circle cx="28" cy="28" r="28" fill="#00c300" transform="translate(0 936)"/><path fill="#fff" d="M27.569 975.034a.385.385 0 0 1-.311-.121.849.849 0 0 1-.059-.643v-.026c.03-.174.165-.991.165-.991a2.208 2.208 0 0 0-.037-1.047c-.129-.319-.626-.487-1.02-.571a12.416 12.416 0 0 1-6.93-3.17 8.443 8.443 0 0 1-2.752-6.1c0-5.184 5.2-9.4 11.581-9.4s11.58 4.216 11.58 9.4a8.408 8.408 0 0 1-2.483 5.783 37.046 37.046 0 0 1-9.1 6.724 1.751 1.751 0 0 1-.634.162zm4.789-15.669a.583.583 0 0 0-.582.582v4.418a.583.583 0 0 0 .582.583h2.209a.583.583 0 1 0 0-1.165h-1.625v-1.045h1.625a.583.583 0 1 0 0-1.166h-1.625v-1.043h1.625a.583.583 0 1 0 0-1.166zm-4.678 2.265 2.262 3.081a.585.585 0 0 0 .466.233.593.593 0 0 0 .185-.03.582.582 0 0 0 .4-.554v-4.415a.583.583 0 0 0-1.165 0v2.734l-2.265-3.083a.586.586 0 0 0-.465-.233.593.593 0 0 0-.185.03.581.581 0 0 0-.4.553v4.419a.583.583 0 0 0 1.166 0v-2.735zm-2.587-2.265a.583.583 0 0 0-.583.582v4.418a.583.583 0 1 0 1.166 0v-4.42a.583.583 0 0 0-.583-.58zm-3.911 0a.583.583 0 0 0-.583.582v4.418a.584.584 0 0 0 .583.583h2.21a.583.583 0 0 0 0-1.165h-1.627v-3.838a.583.583 0 0 0-.583-.58z"/></g></svg>